<svg width="18" height="18" viewBox="0 0 18 18" fill="none" xmlns="http://www.w3.org/2000/svg">
<path d="M16.753 1.65851C16.8395 1.55963 16.9056 1.44468 16.9477 1.32023C16.9897 1.19577 17.0069 1.06426 16.9981 0.93319C16.9893 0.80212 16.9548 0.674062 16.8965 0.556328C16.8383 0.438593 16.7574 0.333487 16.6585 0.247012C16.5596 0.160536 16.4447 0.0943845 16.3202 0.0523334C16.1958 0.0102822 16.0642 -0.00684466 15.9332 0.00193048C15.8021 0.0107056 15.6741 0.0452111 15.5563 0.103477C15.4386 0.161742 15.3335 0.242626 15.247 0.341512L10.137 6.18151L5.8 0.399512C5.70685 0.275316 5.58607 0.174512 5.44721 0.105084C5.30836 0.0356567 5.15525 -0.000488281 5 -0.000488281H1C0.814289 -0.000488281 0.632245 0.0512264 0.474269 0.148861C0.316293 0.246495 0.188626 0.386192 0.105573 0.552298C0.0225203 0.718404 -0.0126368 0.904356 0.00404117 1.08932C0.0207191 1.27428 0.0885733 1.45094 0.2 1.59951L6.637 10.1815L1.247 16.3415C1.16053 16.4404 1.09437 16.5553 1.05232 16.6798C1.01027 16.8042 0.993144 16.9358 1.00192 17.0668C1.01069 17.1979 1.0452 17.326 1.10347 17.4437C1.16173 17.5614 1.24261 17.6665 1.3415 17.753C1.44039 17.8395 1.55534 17.9056 1.67979 17.9477C1.80424 17.9897 1.93575 18.0069 2.06682 17.9981C2.19789 17.9893 2.32595 17.9548 2.44368 17.8965C2.56142 17.8383 2.66652 17.7574 2.753 17.6585L7.863 11.8175L12.2 17.5995C12.2931 17.7237 12.4139 17.8245 12.5528 17.8939C12.6916 17.9634 12.8448 17.9995 13 17.9995H17C17.1857 17.9995 17.3678 17.9478 17.5257 17.8502C17.6837 17.7525 17.8114 17.6128 17.8944 17.4467C17.9775 17.2806 18.0126 17.0947 17.996 16.9097C17.9793 16.7247 17.9114 16.5481 17.8 16.3995L11.363 7.81751L16.753 1.65851Z" fill="#0F172A"/>
</svg>
