<svg width="1100" height="702" viewBox="0 0 1100 702" fill="none" xmlns="http://www.w3.org/2000/svg">
<g clip-path="url(#clip0_1205_5156)">
<rect width="1100" height="702" rx="20" fill="white"/>
<path d="M21.0002 24.6938C18.6989 24.6938 16.8335 22.8283 16.8335 20.5271C16.8335 18.2258 18.6989 16.3604 21.0002 16.3604C23.3014 16.3604 25.1668 18.2258 25.1668 20.5271C25.1668 22.8283 23.3014 24.6938 21.0002 24.6938Z" fill="#E11D48"/>
<path d="M36.0002 24.6938C33.6989 24.6938 31.8335 22.8283 31.8335 20.5271C31.8335 18.2258 33.6989 16.3604 36.0002 16.3604C38.3014 16.3604 40.1668 18.2258 40.1668 20.5271C40.1668 22.8283 38.3014 24.6938 36.0002 24.6938Z" fill="#FBBF24"/>
<path d="M51.0002 24.6938C48.6989 24.6938 46.8335 22.8283 46.8335 20.5271C46.8335 18.2258 48.6989 16.3604 51.0002 16.3604C53.3014 16.3604 55.1668 18.2258 55.1668 20.5271C55.1668 22.8283 53.3014 24.6938 51.0002 24.6938Z" fill="#22C55E"/>
<path d="M1041.76 20.5L1046.71 25.45C1046.8 25.5422 1046.88 25.6526 1046.93 25.7746C1046.98 25.8966 1047.01 26.0278 1047.01 26.1606C1047.01 26.2934 1046.99 26.4251 1046.94 26.548C1046.89 26.6709 1046.81 26.7825 1046.72 26.8764C1046.63 26.9703 1046.51 27.0445 1046.39 27.0948C1046.27 27.1451 1046.14 27.1704 1046 27.1693C1045.87 27.1681 1045.74 27.1405 1045.62 27.0881C1045.5 27.0357 1045.38 26.9595 1045.29 26.864L1039.64 21.207C1039.45 21.0195 1039.34 20.7652 1039.34 20.5C1039.34 20.2348 1039.45 19.9805 1039.64 19.793L1045.29 14.136C1045.48 13.9538 1045.73 13.853 1046 13.8553C1046.26 13.8576 1046.51 13.9628 1046.69 14.1482C1046.88 14.3336 1046.98 14.5844 1046.99 14.8466C1046.99 15.1088 1046.89 15.3614 1046.71 15.55L1041.76 20.5Z" fill="#94A3B8"/>
<path d="M1073.31 20.571L1068.36 15.621C1068.18 15.4324 1068.08 15.1798 1068.08 14.9176C1068.09 14.6554 1068.19 14.4046 1068.38 14.2192C1068.56 14.0338 1068.81 13.9286 1069.07 13.9263C1069.34 13.924 1069.59 14.0248 1069.78 14.207L1075.43 19.864C1075.62 20.0515 1075.73 20.3058 1075.73 20.571C1075.73 20.8362 1075.62 21.0905 1075.43 21.278L1069.78 26.935C1069.59 27.1172 1069.34 27.218 1069.07 27.2157C1068.81 27.2134 1068.56 27.1082 1068.38 26.9228C1068.19 26.7374 1068.09 26.4866 1068.08 26.2244C1068.08 25.9622 1068.18 25.7096 1068.36 25.521L1073.31 20.571V20.571Z" fill="#475569"/>
<rect x="303.515" y="8" width="494.903" height="25" rx="5" fill="#F1F5F9"/>
<path d="M521.531 23.916V20.6523C521.531 20.4023 521.48 20.1855 521.379 20.002C521.281 19.8145 521.133 19.6699 520.934 19.5684C520.734 19.4668 520.488 19.416 520.195 19.416C519.922 19.416 519.682 19.4629 519.475 19.5566C519.271 19.6504 519.111 19.7734 518.994 19.9258C518.881 20.0781 518.824 20.2422 518.824 20.418H517.74C517.74 20.1914 517.799 19.9668 517.916 19.7441C518.033 19.5215 518.201 19.3203 518.42 19.1406C518.643 18.957 518.908 18.8125 519.217 18.707C519.529 18.5977 519.877 18.543 520.26 18.543C520.721 18.543 521.127 18.6211 521.479 18.7773C521.834 18.9336 522.111 19.1699 522.311 19.4863C522.514 19.7988 522.615 20.1914 522.615 20.6641V23.6172C522.615 23.8281 522.633 24.0527 522.668 24.291C522.707 24.5293 522.764 24.7344 522.838 24.9062V25H521.707C521.652 24.875 521.609 24.709 521.578 24.502C521.547 24.291 521.531 24.0957 521.531 23.916ZM521.719 21.1562L521.73 21.918H520.635C520.326 21.918 520.051 21.9434 519.809 21.9941C519.566 22.041 519.363 22.1133 519.199 22.2109C519.035 22.3086 518.91 22.4316 518.824 22.5801C518.738 22.7246 518.695 22.8945 518.695 23.0898C518.695 23.2891 518.74 23.4707 518.83 23.6348C518.92 23.7988 519.055 23.9297 519.234 24.0273C519.418 24.1211 519.643 24.168 519.908 24.168C520.24 24.168 520.533 24.0977 520.787 23.957C521.041 23.8164 521.242 23.6445 521.391 23.4414C521.543 23.2383 521.625 23.041 521.637 22.8496L522.1 23.3711C522.072 23.5352 521.998 23.7168 521.877 23.916C521.756 24.1152 521.594 24.3066 521.391 24.4902C521.191 24.6699 520.953 24.8203 520.676 24.9414C520.402 25.0586 520.094 25.1172 519.75 25.1172C519.32 25.1172 518.943 25.0332 518.619 24.8652C518.299 24.6973 518.049 24.4727 517.869 24.1914C517.693 23.9062 517.605 23.5879 517.605 23.2363C517.605 22.8965 517.672 22.5977 517.805 22.3398C517.938 22.0781 518.129 21.8613 518.379 21.6895C518.629 21.5137 518.93 21.3809 519.281 21.291C519.633 21.2012 520.025 21.1562 520.459 21.1562H521.719ZM525.404 19.8789V27.4375H524.314V18.6602H525.311L525.404 19.8789ZM529.676 21.7773V21.9004C529.676 22.3613 529.621 22.7891 529.512 23.1836C529.402 23.5742 529.242 23.9141 529.031 24.2031C528.824 24.4922 528.568 24.7168 528.264 24.877C527.959 25.0371 527.609 25.1172 527.215 25.1172C526.812 25.1172 526.457 25.0508 526.148 24.918C525.84 24.7852 525.578 24.5918 525.363 24.3379C525.148 24.084 524.977 23.7793 524.848 23.4238C524.723 23.0684 524.637 22.668 524.59 22.2227V21.5664C524.637 21.0977 524.725 20.6777 524.854 20.3066C524.982 19.9355 525.152 19.6191 525.363 19.3574C525.578 19.0918 525.838 18.8906 526.143 18.7539C526.447 18.6133 526.799 18.543 527.197 18.543C527.596 18.543 527.949 18.6211 528.258 18.7773C528.566 18.9297 528.826 19.1484 529.037 19.4336C529.248 19.7188 529.406 20.0605 529.512 20.459C529.621 20.8535 529.676 21.293 529.676 21.7773ZM528.586 21.9004V21.7773C528.586 21.4609 528.553 21.1641 528.486 20.8867C528.42 20.6055 528.316 20.3594 528.176 20.1484C528.039 19.9336 527.863 19.7656 527.648 19.6445C527.434 19.5195 527.178 19.457 526.881 19.457C526.607 19.457 526.369 19.5039 526.166 19.5977C525.967 19.6914 525.797 19.8184 525.656 19.9785C525.516 20.1348 525.4 20.3145 525.311 20.5176C525.225 20.7168 525.16 20.9238 525.117 21.1387V22.6562C525.195 22.9297 525.305 23.1875 525.445 23.4297C525.586 23.668 525.773 23.8613 526.008 24.0098C526.242 24.1543 526.537 24.2266 526.893 24.2266C527.186 24.2266 527.438 24.166 527.648 24.0449C527.863 23.9199 528.039 23.75 528.176 23.5352C528.316 23.3203 528.42 23.0742 528.486 22.7969C528.553 22.5156 528.586 22.2168 528.586 21.9004ZM532.143 19.8789V27.4375H531.053V18.6602H532.049L532.143 19.8789ZM536.414 21.7773V21.9004C536.414 22.3613 536.359 22.7891 536.25 23.1836C536.141 23.5742 535.98 23.9141 535.77 24.2031C535.562 24.4922 535.307 24.7168 535.002 24.877C534.697 25.0371 534.348 25.1172 533.953 25.1172C533.551 25.1172 533.195 25.0508 532.887 24.918C532.578 24.7852 532.316 24.5918 532.102 24.3379C531.887 24.084 531.715 23.7793 531.586 23.4238C531.461 23.0684 531.375 22.668 531.328 22.2227V21.5664C531.375 21.0977 531.463 20.6777 531.592 20.3066C531.721 19.9355 531.891 19.6191 532.102 19.3574C532.316 19.0918 532.576 18.8906 532.881 18.7539C533.186 18.6133 533.537 18.543 533.936 18.543C534.334 18.543 534.688 18.6211 534.996 18.7773C535.305 18.9297 535.564 19.1484 535.775 19.4336C535.986 19.7188 536.145 20.0605 536.25 20.459C536.359 20.8535 536.414 21.293 536.414 21.7773ZM535.324 21.9004V21.7773C535.324 21.4609 535.291 21.1641 535.225 20.8867C535.158 20.6055 535.055 20.3594 534.914 20.1484C534.777 19.9336 534.602 19.7656 534.387 19.6445C534.172 19.5195 533.916 19.457 533.619 19.457C533.346 19.457 533.107 19.5039 532.904 19.5977C532.705 19.6914 532.535 19.8184 532.395 19.9785C532.254 20.1348 532.139 20.3145 532.049 20.5176C531.963 20.7168 531.898 20.9238 531.855 21.1387V22.6562C531.934 22.9297 532.043 23.1875 532.184 23.4297C532.324 23.668 532.512 23.8613 532.746 24.0098C532.98 24.1543 533.275 24.2266 533.631 24.2266C533.924 24.2266 534.176 24.166 534.387 24.0449C534.602 23.9199 534.777 23.75 534.914 23.5352C535.055 23.3203 535.158 23.0742 535.225 22.7969C535.291 22.5156 535.324 22.2168 535.324 21.9004ZM537.814 24.4258C537.814 24.2422 537.871 24.0879 537.984 23.9629C538.102 23.834 538.27 23.7695 538.488 23.7695C538.707 23.7695 538.873 23.834 538.986 23.9629C539.104 24.0879 539.162 24.2422 539.162 24.4258C539.162 24.6055 539.104 24.7578 538.986 24.8828C538.873 25.0078 538.707 25.0703 538.488 25.0703C538.27 25.0703 538.102 25.0078 537.984 24.8828C537.871 24.7578 537.814 24.6055 537.814 24.4258ZM543.592 25.1172C543.15 25.1172 542.75 25.043 542.391 24.8945C542.035 24.7422 541.729 24.5293 541.471 24.2559C541.217 23.9824 541.021 23.6582 540.885 23.2832C540.748 22.9082 540.68 22.498 540.68 22.0527V21.8066C540.68 21.291 540.756 20.832 540.908 20.4297C541.061 20.0234 541.268 19.6797 541.529 19.3984C541.791 19.1172 542.088 18.9043 542.42 18.7598C542.752 18.6152 543.096 18.543 543.451 18.543C543.904 18.543 544.295 18.6211 544.623 18.7773C544.955 18.9336 545.227 19.1523 545.438 19.4336C545.648 19.7109 545.805 20.0391 545.906 20.418C546.008 20.793 546.059 21.2031 546.059 21.6484V22.1348H541.324V21.25H544.975V21.168C544.959 20.8867 544.9 20.6133 544.799 20.3477C544.701 20.082 544.545 19.8633 544.33 19.6914C544.115 19.5195 543.822 19.4336 543.451 19.4336C543.205 19.4336 542.979 19.4863 542.771 19.5918C542.564 19.6934 542.387 19.8457 542.238 20.0488C542.09 20.252 541.975 20.5 541.893 20.793C541.811 21.0859 541.77 21.4238 541.77 21.8066V22.0527C541.77 22.3535 541.811 22.6367 541.893 22.9023C541.979 23.1641 542.102 23.3945 542.262 23.5938C542.426 23.793 542.623 23.9492 542.854 24.0625C543.088 24.1758 543.354 24.2324 543.65 24.2324C544.033 24.2324 544.357 24.1543 544.623 23.998C544.889 23.8418 545.121 23.6328 545.32 23.3711L545.977 23.8926C545.84 24.0996 545.666 24.2969 545.455 24.4844C545.244 24.6719 544.984 24.8242 544.676 24.9414C544.371 25.0586 544.01 25.1172 543.592 25.1172ZM549.58 20.9277V21.8184H546.721V20.9277H549.58ZM552.246 23.875L553.875 18.6602H554.59L554.449 19.6973L552.791 25H552.094L552.246 23.875ZM551.15 18.6602L552.539 23.9336L552.639 25H551.906L550.066 18.6602H551.15ZM556.148 23.8926L557.473 18.6602H558.551L556.711 25H555.984L556.148 23.8926ZM554.748 18.6602L556.342 23.7871L556.523 25H555.832L554.127 19.6855L553.986 18.6602H554.748ZM562.295 25.1172C561.854 25.1172 561.453 25.043 561.094 24.8945C560.738 24.7422 560.432 24.5293 560.174 24.2559C559.92 23.9824 559.725 23.6582 559.588 23.2832C559.451 22.9082 559.383 22.498 559.383 22.0527V21.8066C559.383 21.291 559.459 20.832 559.611 20.4297C559.764 20.0234 559.971 19.6797 560.232 19.3984C560.494 19.1172 560.791 18.9043 561.123 18.7598C561.455 18.6152 561.799 18.543 562.154 18.543C562.607 18.543 562.998 18.6211 563.326 18.7773C563.658 18.9336 563.93 19.1523 564.141 19.4336C564.352 19.7109 564.508 20.0391 564.609 20.418C564.711 20.793 564.762 21.2031 564.762 21.6484V22.1348H560.027V21.25H563.678V21.168C563.662 20.8867 563.604 20.6133 563.502 20.3477C563.404 20.082 563.248 19.8633 563.033 19.6914C562.818 19.5195 562.525 19.4336 562.154 19.4336C561.908 19.4336 561.682 19.4863 561.475 19.5918C561.268 19.6934 561.09 19.8457 560.941 20.0488C560.793 20.252 560.678 20.5 560.596 20.793C560.514 21.0859 560.473 21.4238 560.473 21.8066V22.0527C560.473 22.3535 560.514 22.6367 560.596 22.9023C560.682 23.1641 560.805 23.3945 560.965 23.5938C561.129 23.793 561.326 23.9492 561.557 24.0625C561.791 24.1758 562.057 24.2324 562.354 24.2324C562.736 24.2324 563.061 24.1543 563.326 23.998C563.592 23.8418 563.824 23.6328 564.023 23.3711L564.68 23.8926C564.543 24.0996 564.369 24.2969 564.158 24.4844C563.947 24.6719 563.688 24.8242 563.379 24.9414C563.074 25.0586 562.713 25.1172 562.295 25.1172ZM566.021 16H567.111V23.7695L567.018 25H566.021V16ZM571.395 21.7773V21.9004C571.395 22.3613 571.34 22.7891 571.23 23.1836C571.121 23.5742 570.961 23.9141 570.75 24.2031C570.539 24.4922 570.281 24.7168 569.977 24.877C569.672 25.0371 569.322 25.1172 568.928 25.1172C568.525 25.1172 568.172 25.0488 567.867 24.9121C567.566 24.7715 567.312 24.5703 567.105 24.3086C566.898 24.0469 566.732 23.7305 566.607 23.3594C566.486 22.9883 566.402 22.5703 566.355 22.1055V21.5664C566.402 21.0977 566.486 20.6777 566.607 20.3066C566.732 19.9355 566.898 19.6191 567.105 19.3574C567.312 19.0918 567.566 18.8906 567.867 18.7539C568.168 18.6133 568.518 18.543 568.916 18.543C569.314 18.543 569.668 18.6211 569.977 18.7773C570.285 18.9297 570.543 19.1484 570.75 19.4336C570.961 19.7188 571.121 20.0605 571.23 20.459C571.34 20.8535 571.395 21.293 571.395 21.7773ZM570.305 21.9004V21.7773C570.305 21.4609 570.275 21.1641 570.217 20.8867C570.158 20.6055 570.064 20.3594 569.936 20.1484C569.807 19.9336 569.637 19.7656 569.426 19.6445C569.215 19.5195 568.955 19.457 568.646 19.457C568.373 19.457 568.135 19.5039 567.932 19.5977C567.732 19.6914 567.562 19.8184 567.422 19.9785C567.281 20.1348 567.166 20.3145 567.076 20.5176C566.99 20.7168 566.926 20.9238 566.883 21.1387V22.5508C566.945 22.8242 567.047 23.0879 567.188 23.3418C567.332 23.5918 567.523 23.7969 567.762 23.957C568.004 24.1172 568.303 24.1973 568.658 24.1973C568.951 24.1973 569.201 24.1387 569.408 24.0215C569.619 23.9004 569.789 23.7344 569.918 23.5234C570.051 23.3125 570.148 23.0684 570.211 22.791C570.273 22.5137 570.305 22.2168 570.305 21.9004ZM572.783 24.4258C572.783 24.2422 572.84 24.0879 572.953 23.9629C573.07 23.834 573.238 23.7695 573.457 23.7695C573.676 23.7695 573.842 23.834 573.955 23.9629C574.072 24.0879 574.131 24.2422 574.131 24.4258C574.131 24.6055 574.072 24.7578 573.955 24.8828C573.842 25.0078 573.676 25.0703 573.457 25.0703C573.238 25.0703 573.07 25.0078 572.953 24.8828C572.84 24.7578 572.783 24.6055 572.783 24.4258ZM579.668 23.916V20.6523C579.668 20.4023 579.617 20.1855 579.516 20.002C579.418 19.8145 579.27 19.6699 579.07 19.5684C578.871 19.4668 578.625 19.416 578.332 19.416C578.059 19.416 577.818 19.4629 577.611 19.5566C577.408 19.6504 577.248 19.7734 577.131 19.9258C577.018 20.0781 576.961 20.2422 576.961 20.418H575.877C575.877 20.1914 575.936 19.9668 576.053 19.7441C576.17 19.5215 576.338 19.3203 576.557 19.1406C576.779 18.957 577.045 18.8125 577.354 18.707C577.666 18.5977 578.014 18.543 578.396 18.543C578.857 18.543 579.264 18.6211 579.615 18.7773C579.971 18.9336 580.248 19.1699 580.447 19.4863C580.65 19.7988 580.752 20.1914 580.752 20.6641V23.6172C580.752 23.8281 580.77 24.0527 580.805 24.291C580.844 24.5293 580.9 24.7344 580.975 24.9062V25H579.844C579.789 24.875 579.746 24.709 579.715 24.502C579.684 24.291 579.668 24.0957 579.668 23.916ZM579.855 21.1562L579.867 21.918H578.771C578.463 21.918 578.188 21.9434 577.945 21.9941C577.703 22.041 577.5 22.1133 577.336 22.2109C577.172 22.3086 577.047 22.4316 576.961 22.5801C576.875 22.7246 576.832 22.8945 576.832 23.0898C576.832 23.2891 576.877 23.4707 576.967 23.6348C577.057 23.7988 577.191 23.9297 577.371 24.0273C577.555 24.1211 577.779 24.168 578.045 24.168C578.377 24.168 578.67 24.0977 578.924 23.957C579.178 23.8164 579.379 23.6445 579.527 23.4414C579.68 23.2383 579.762 23.041 579.773 22.8496L580.236 23.3711C580.209 23.5352 580.135 23.7168 580.014 23.916C579.893 24.1152 579.73 24.3066 579.527 24.4902C579.328 24.6699 579.09 24.8203 578.812 24.9414C578.539 25.0586 578.23 25.1172 577.887 25.1172C577.457 25.1172 577.08 25.0332 576.756 24.8652C576.436 24.6973 576.186 24.4727 576.006 24.1914C575.83 23.9062 575.742 23.5879 575.742 23.2363C575.742 22.8965 575.809 22.5977 575.941 22.3398C576.074 22.0781 576.266 21.8613 576.516 21.6895C576.766 21.5137 577.066 21.3809 577.418 21.291C577.77 21.2012 578.162 21.1562 578.596 21.1562H579.855ZM583.635 18.6602V25H582.545V18.6602H583.635ZM582.463 16.9785C582.463 16.8027 582.516 16.6543 582.621 16.5332C582.73 16.4121 582.891 16.3516 583.102 16.3516C583.309 16.3516 583.467 16.4121 583.576 16.5332C583.689 16.6543 583.746 16.8027 583.746 16.9785C583.746 17.1465 583.689 17.291 583.576 17.4121C583.467 17.5293 583.309 17.5879 583.102 17.5879C582.891 17.5879 582.73 17.5293 582.621 17.4121C582.516 17.291 582.463 17.1465 582.463 16.9785Z" fill="#94A3B8"/>
<rect y="41" width="1100" height="661" fill="#E2E8F0"/>
<path d="M0 41.8813H184.255V702H0V41.8813Z" fill="#CBD5E1"/>
<path d="M22.1104 104.456C22.1104 98.615 27.06 93.88 33.1656 93.88H151.089C157.194 93.88 162.144 98.615 162.144 104.456V104.456C162.144 110.297 157.194 115.032 151.089 115.032H33.1656C27.06 115.032 22.1104 110.297 22.1104 104.456V104.456Z" fill="#93C5FD"/>
<path d="M66.3315 178.488C66.3315 175.568 68.8064 173.2 71.8592 173.2H163.986C167.039 173.2 169.514 175.568 169.514 178.488V178.488C169.514 181.408 167.039 183.776 163.986 183.776H71.8592C68.8063 183.776 66.3315 181.408 66.3315 178.488V178.488Z" fill="white"/>
<path d="M66.3315 234.893C66.3315 231.973 68.8064 229.605 71.8592 229.605H135.427C138.48 229.605 140.955 231.973 140.955 234.893V234.893C140.955 237.814 138.48 240.181 135.427 240.181H71.8592C68.8064 240.181 66.3315 237.814 66.3315 234.893V234.893Z" fill="white"/>
<path d="M66.3315 291.299C66.3315 288.378 68.8064 286.011 71.8592 286.011H151.089C154.141 286.011 156.616 288.378 156.616 291.299V291.299C156.616 294.219 154.141 296.587 151.089 296.587H71.8592C68.8063 296.587 66.3315 294.219 66.3315 291.299V291.299Z" fill="white"/>
<path fill-rule="evenodd" clip-rule="evenodd" d="M36.8507 189.945C43.4652 189.945 48.8273 184.816 48.8273 178.488C48.8273 172.16 43.4652 167.031 36.8507 167.031C30.2363 167.031 24.8742 172.16 24.8742 178.488C24.8742 184.816 30.2363 189.945 36.8507 189.945ZM36.8507 192.589C44.9916 192.589 51.5911 186.276 51.5911 178.488C51.5911 170.7 44.9916 164.387 36.8507 164.387C28.7098 164.387 22.1104 170.7 22.1104 178.488C22.1104 186.276 28.7098 192.589 36.8507 192.589Z" fill="#93C5FD"/>
<path d="M243.216 104.456C243.216 100.562 246.516 97.4053 250.586 97.4053H357.454C361.525 97.4053 364.824 100.562 364.824 104.456V104.456C364.824 108.35 361.525 111.507 357.454 111.507H250.586C246.516 111.507 243.216 108.35 243.216 104.456V104.456Z" fill="#BFDBFE"/>
<path fill-rule="evenodd" clip-rule="evenodd" d="M438.987 388.739C439.041 383.712 443.216 379.432 448.581 379.432C451.874 379.432 454.297 380.991 455.843 382.46C456.273 382.869 456.643 383.276 456.952 383.653C457.261 383.276 457.631 382.869 458.061 382.46C459.607 380.991 462.03 379.432 465.323 379.432C470.688 379.432 474.863 383.712 474.917 388.739L474.917 388.74C475.019 398.544 466.784 405.327 458.507 410.702C458.048 411.001 457.507 411.16 456.952 411.16C456.398 411.16 455.856 411.001 455.397 410.702C447.119 405.327 438.884 398.544 438.987 388.74L438.987 388.739ZM458.186 386.636C457.952 387.082 457.474 387.364 456.952 387.364C456.43 387.364 455.952 387.082 455.718 386.636C455.717 386.636 455.717 386.635 455.716 386.633C455.714 386.63 455.712 386.625 455.708 386.618C455.706 386.614 455.703 386.61 455.701 386.605C455.685 386.577 455.659 386.532 455.623 386.472C455.551 386.351 455.438 386.17 455.284 385.951C454.975 385.51 454.512 384.921 453.896 384.336C452.658 383.16 450.895 382.076 448.581 382.076C444.833 382.076 441.791 385.09 441.751 388.766M458.186 386.636C458.187 386.636 458.187 386.635 458.188 386.633C458.191 386.629 458.196 386.619 458.204 386.605C458.219 386.577 458.245 386.532 458.281 386.472C458.353 386.351 458.466 386.17 458.62 385.951C458.929 385.51 459.393 384.921 460.008 384.336C461.246 383.16 463.009 382.076 465.323 382.076C469.071 382.076 472.114 385.089 472.153 388.766C472.239 397.028 465.303 403.093 456.953 408.515L456.952 408.516L456.951 408.515C448.6 403.093 441.664 397.028 441.751 388.766" fill="white"/>
<path d="M243.216 395.296C243.216 391.402 246.516 388.245 250.586 388.245H300.335C304.406 388.245 307.705 391.402 307.705 395.296V395.296C307.705 399.19 304.406 402.347 300.335 402.347H250.586C246.516 402.347 243.216 399.19 243.216 395.296V395.296Z" fill="#BFDBFE"/>
<path d="M322.446 395.296C322.446 391.402 325.746 388.245 329.816 388.245H412.731C416.801 388.245 420.101 391.402 420.101 395.296V395.296C420.101 399.19 416.801 402.347 412.731 402.347H329.816C325.746 402.347 322.446 399.19 322.446 395.296V395.296Z" fill="#BFDBFE"/>
<path d="M243.216 464.04C243.216 461.12 245.691 458.752 248.744 458.752H326.131C329.184 458.752 331.659 461.12 331.659 464.04V464.04C331.659 466.96 329.184 469.328 326.131 469.328H248.744C245.691 469.328 243.216 466.96 243.216 464.04V464.04Z" fill="white"/>
<path d="M243.216 488.717C243.216 485.797 245.691 483.429 248.744 483.429H367.588C370.641 483.429 373.116 485.797 373.116 488.717V488.717C373.116 491.638 370.641 494.005 367.588 494.005H248.744C245.691 494.005 243.216 491.638 243.216 488.717V488.717Z" fill="white"/>
<path d="M346.399 464.04C346.399 461.12 348.874 458.752 351.927 458.752H444.054C447.107 458.752 449.582 461.12 449.582 464.04V464.04C449.582 466.96 447.107 469.328 444.054 469.328H351.927C348.874 469.328 346.399 466.96 346.399 464.04V464.04Z" fill="white"/>
<path d="M243.216 173.2C243.216 170.28 245.691 167.912 248.744 167.912H326.131C329.184 167.912 331.659 170.28 331.659 173.2V173.2C331.659 176.12 329.184 178.488 326.131 178.488H248.744C245.691 178.488 243.216 176.12 243.216 173.2V173.2Z" fill="white"/>
<path d="M243.216 197.877C243.216 194.957 245.691 192.589 248.744 192.589H439.447C442.5 192.589 444.975 194.957 444.975 197.877V197.877C444.975 200.798 442.5 203.165 439.447 203.165H248.744C245.691 203.165 243.216 200.798 243.216 197.877V197.877Z" fill="white"/>
<path d="M346.399 173.2C346.399 170.28 348.874 167.912 351.927 167.912H561.977C565.03 167.912 567.504 170.28 567.504 173.2V173.2C567.504 176.12 565.03 178.488 561.977 178.488H351.927C348.874 178.488 346.399 176.12 346.399 173.2V173.2Z" fill="white"/>
<path fill-rule="evenodd" clip-rule="evenodd" d="M49.7487 223.436H25.7956V246.351H49.7487V223.436ZM23.0317 220.792V248.995H52.5125V220.792H23.0317Z" fill="#60A5FA"/>
<g clip-path="url(#clip1_1205_5156)">
<rect x="638.442" y="104.456" width="184.255" height="241.485" rx="20" fill="white"/>
<path d="M761.18 346.15C761.18 407.257 709.826 456.794 646.479 456.794C583.131 456.794 531.778 407.257 531.778 346.15C531.778 285.043 583.131 235.506 646.479 235.506C709.826 235.506 761.18 285.043 761.18 346.15Z" fill="#FACC15"/>
<path fill-rule="evenodd" clip-rule="evenodd" d="M848.276 198.504L788.344 141.17L728.411 198.504L788.344 255.838L848.276 198.504ZM788.344 136.184L723.2 198.504L788.344 260.823L853.488 198.504L788.344 136.184Z" fill="#BFDBFE"/>
</g>
<path d="M37.7721 278.96L52.5125 303.384H23.0317L37.7721 278.96Z" fill="#93C5FD"/>
<rect x="852.178" y="104.456" width="184.255" height="178.029" rx="20" fill="white"/>
<path fill-rule="evenodd" clip-rule="evenodd" d="M935.063 237.2C953.433 237.2 968.199 223.085 968.199 205.821C968.199 188.558 953.433 174.443 935.063 174.443C916.693 174.443 901.927 188.558 901.927 205.821C901.927 223.085 916.693 237.2 935.063 237.2ZM935.063 246.013C958.451 246.013 977.412 228.018 977.412 205.821C977.412 183.624 958.451 165.63 935.063 165.63C911.674 165.63 892.714 183.624 892.714 205.821C892.714 228.018 911.674 246.013 935.063 246.013Z" fill="#BFDBFE"/>
<path d="M954.309 193.1L966.493 149.602L999.778 181.444L954.309 193.1Z" fill="#FACC15"/>
<g clip-path="url(#clip2_1205_5156)">
<rect x="638.442" y="374.144" width="184.255" height="269.688" rx="20" fill="white"/>
<path fill-rule="evenodd" clip-rule="evenodd" d="M811.181 678.204C862.825 678.204 904.69 638.153 904.69 588.749C904.69 539.344 862.825 499.293 811.181 499.293C759.537 499.293 717.672 539.344 717.672 588.749C717.672 638.153 759.537 678.204 811.181 678.204ZM811.181 687.017C867.913 687.017 913.903 643.021 913.903 588.749C913.903 534.476 867.913 490.48 811.181 490.48C754.449 490.48 708.459 534.476 708.459 588.749C708.459 643.021 754.449 687.017 811.181 687.017Z" fill="#FACC15"/>
<path d="M735.176 454.545C735.176 471.204 720.946 484.71 703.392 484.71C685.839 484.71 671.608 471.204 671.608 454.545C671.608 437.885 685.839 424.38 703.392 424.38C720.946 424.38 735.176 437.885 735.176 454.545Z" fill="#BFDBFE"/>
<path fill-rule="evenodd" clip-rule="evenodd" d="M703.392 482.066C719.44 482.066 732.412 469.724 732.412 454.545C732.412 439.365 719.44 427.024 703.392 427.024C687.344 427.024 674.372 439.365 674.372 454.545C674.372 469.724 687.344 482.066 703.392 482.066ZM703.392 484.71C720.946 484.71 735.176 471.204 735.176 454.545C735.176 437.885 720.946 424.38 703.392 424.38C685.839 424.38 671.608 437.885 671.608 454.545C671.608 471.204 685.839 484.71 703.392 484.71Z" fill="#BFDBFE"/>
</g>
<g clip-path="url(#clip3_1205_5156)">
<rect x="852.178" y="310.688" width="184.255" height="301.416" rx="20" fill="white"/>
<path d="M1078.81 527.937C1078.81 549.597 1060.66 567.156 1038.28 567.156C1015.89 567.156 997.739 549.597 997.739 527.937C997.739 506.276 1015.89 488.717 1038.28 488.717C1060.66 488.717 1078.81 506.276 1078.81 527.937Z" fill="white"/>
<path fill-rule="evenodd" clip-rule="evenodd" d="M1038.28 564.512C1059.11 564.512 1076.05 548.165 1076.05 527.937C1076.05 507.708 1059.11 491.361 1038.28 491.361C1017.44 491.361 1000.5 507.708 1000.5 527.937C1000.5 548.165 1017.44 564.512 1038.28 564.512ZM1038.28 567.156C1060.66 567.156 1078.81 549.597 1078.81 527.937C1078.81 506.276 1060.66 488.717 1038.28 488.717C1015.89 488.717 997.739 506.276 997.739 527.937C997.739 549.597 1015.89 567.156 1038.28 567.156Z" fill="#BFDBFE"/>
<path d="M1005.11 416.889C1005.11 445.85 980.773 469.328 950.754 469.328C920.734 469.328 896.398 445.85 896.398 416.889C896.398 387.927 920.734 364.449 950.754 364.449C980.773 364.449 1005.11 387.927 1005.11 416.889Z" fill="#BFDBFE"/>
<path d="M886.265 517.801L888.864 524.955L896.779 525.109L890.471 529.685L892.763 536.933L886.265 532.608L879.767 536.933L882.059 529.685L875.751 525.109L883.666 524.955L886.265 517.801Z" fill="#FACC15"/>
<path d="M924.038 517.801L926.637 524.955L934.552 525.109L928.243 529.685L930.536 536.933L924.038 532.608L917.539 536.933L919.832 529.685L913.523 525.109L921.438 524.955L924.038 517.801Z" fill="#FACC15"/>
<path d="M961.809 517.801L964.408 524.955L972.323 525.109L966.015 529.685L968.307 536.933L961.809 532.608L955.311 536.933L957.603 529.685L951.295 525.109L959.21 524.955L961.809 517.801Z" fill="#FACC15"/>
<path d="M999.582 517.801L1002.18 524.955L1010.1 525.109L1003.79 529.685L1006.08 536.933L999.582 532.608L993.083 536.933L995.376 529.685L989.067 525.109L996.982 524.955L999.582 517.801Z" fill="#FACC15"/>
<path d="M1037.35 517.801L1039.95 524.955L1047.87 525.109L1041.56 529.685L1043.85 536.933L1037.35 532.608L1030.86 536.933L1033.15 529.685L1026.84 525.109L1034.75 524.955L1037.35 517.801Z" fill="#FACC15"/>
</g>
</g>
<defs>
<clipPath id="clip0_1205_5156">
<rect width="1100" height="702" rx="20" fill="white"/>
</clipPath>
<clipPath id="clip1_1205_5156">
<rect x="638.442" y="104.456" width="184.255" height="241.485" rx="20" fill="white"/>
</clipPath>
<clipPath id="clip2_1205_5156">
<rect x="638.442" y="374.144" width="184.255" height="269.688" rx="20" fill="white"/>
</clipPath>
<clipPath id="clip3_1205_5156">
<rect x="852.178" y="310.688" width="184.255" height="301.416" rx="20" fill="white"/>
</clipPath>
</defs>
</svg>
