<svg width="86" height="35" viewBox="0 0 86 35" fill="none" xmlns="http://www.w3.org/2000/svg">
<rect x="0.5" y="0.5" width="85" height="34" rx="0.5" stroke="#FDA4AF"/>
<path d="M18.1484 25.2344C17.1641 25.2344 16.2812 25.0781 15.5 24.7656C14.7188 24.4453 14.0547 24.0039 13.5078 23.4414C12.9688 22.8789 12.5547 22.2266 12.2656 21.4844C11.9766 20.7344 11.832 19.9375 11.832 19.0938V18.625C11.832 17.6641 11.9688 16.7852 12.2422 15.9883C12.5156 15.1914 12.9062 14.5 13.4141 13.9141C13.9297 13.3281 14.5547 12.8789 15.2891 12.5664C16.0234 12.2461 16.8516 12.0859 17.7734 12.0859C18.6719 12.0859 19.4688 12.2344 20.1641 12.5312C20.8594 12.8281 21.4414 13.25 21.9102 13.7969C22.3867 14.3438 22.7461 15 22.9883 15.7656C23.2305 16.5234 23.3516 17.3672 23.3516 18.2969V19.7031H13.2734V17.4531H20.0352V17.1953C20.0352 16.7266 19.9492 16.3086 19.7773 15.9414C19.6133 15.5664 19.3633 15.2695 19.0273 15.0508C18.6914 14.832 18.2617 14.7227 17.7383 14.7227C17.293 14.7227 16.9102 14.8203 16.5898 15.0156C16.2695 15.2109 16.0078 15.4844 15.8047 15.8359C15.6094 16.1875 15.4609 16.6016 15.3594 17.0781C15.2656 17.5469 15.2188 18.0625 15.2188 18.625V19.0938C15.2188 19.6016 15.2891 20.0703 15.4297 20.5C15.5781 20.9297 15.7852 21.3008 16.0508 21.6133C16.3242 21.9258 16.6523 22.168 17.0352 22.3398C17.4258 22.5117 17.8672 22.5977 18.3594 22.5977C18.9688 22.5977 19.5352 22.4805 20.0586 22.2461C20.5898 22.0039 21.0469 21.6406 21.4297 21.1562L23.0703 22.9375C22.8047 23.3203 22.4414 23.6875 21.9805 24.0391C21.5273 24.3906 20.9805 24.6797 20.3398 24.9062C19.6992 25.125 18.9688 25.2344 18.1484 25.2344ZM31.9297 16.3516V19H25.3086V16.3516H31.9297ZM38.5205 23.2988L41.5293 10.21H43.4082L43.9922 12.1523L40.9199 25H38.9014L38.5205 23.2988ZM37.3525 10.21L39.8408 23.2227L39.4473 25H37.251L33.8232 10.21H37.3525ZM46.4678 23.2227L48.9434 10.21H52.46L49.0449 25H46.874L46.4678 23.2227ZM44.7539 10.21L47.8008 23.3115L47.4072 25H45.3887L42.2402 12.1523L42.8623 10.21H44.7539ZM65.041 22.1436V25H56.5352V22.1436H65.041ZM57.8301 10.21V25H54.1738V10.21H57.8301ZM63.9492 15.9229V18.7793H56.5352V15.9229H63.9492ZM65.0537 10.21V13.0791H56.5352V10.21H65.0537ZM73.1152 18.7793H68.9893L68.9639 16.3799H72.6201C73.1279 16.3799 73.5469 16.3206 73.877 16.2021C74.207 16.0752 74.4525 15.8932 74.6133 15.6562C74.7741 15.4193 74.8545 15.123 74.8545 14.7676C74.8545 14.3613 74.7741 14.0355 74.6133 13.79C74.4609 13.5361 74.2197 13.3542 73.8896 13.2441C73.568 13.1341 73.1618 13.0791 72.6709 13.0791H70.3477V25H66.6914V10.21H72.3789C73.3438 10.21 74.2028 10.2946 74.9561 10.4639C75.7178 10.6247 76.3652 10.8743 76.8984 11.2129C77.4316 11.5514 77.8379 11.9788 78.1172 12.4951C78.3965 13.0029 78.5361 13.5996 78.5361 14.2852C78.5361 14.8861 78.3923 15.4574 78.1045 15.999C77.8252 16.5407 77.3639 16.9766 76.7207 17.3066C76.0859 17.6367 75.2269 17.8018 74.1436 17.8018L73.1152 18.7793ZM72.9502 25H68.0879L69.3701 22.1436H72.9502C73.4919 22.1436 73.9277 22.0716 74.2578 21.9277C74.5879 21.7754 74.8291 21.5765 74.9814 21.3311C75.1338 21.0771 75.21 20.8063 75.21 20.5186C75.21 20.1631 75.138 19.8584 74.9941 19.6045C74.8587 19.3421 74.6344 19.139 74.3213 18.9951C74.0166 18.8512 73.6146 18.7793 73.1152 18.7793H69.916L69.9287 16.3799H73.7881L74.6387 17.3574C75.6882 17.2897 76.5218 17.4294 77.1396 17.7764C77.7575 18.1149 78.1976 18.5592 78.46 19.1094C78.7308 19.651 78.8662 20.2012 78.8662 20.7598C78.8662 21.4876 78.7393 22.1182 78.4854 22.6514C78.2314 23.1846 77.8548 23.6247 77.3555 23.9717C76.8561 24.3187 76.2383 24.5768 75.502 24.7461C74.7656 24.9154 73.915 25 72.9502 25Z" fill="white"/>
<path d="M16 34C16 32.0302 15.612 30.0796 14.8582 28.2597C14.1044 26.4399 12.9995 24.7863 11.6066 23.3934C10.2137 22.0005 8.56013 20.8956 6.74025 20.1418C4.92037 19.388 2.96983 19 0.999999 19L1 34H16Z" fill="#FDA4AF"/>
<path d="M15 34C15 32.1615 14.6379 30.341 13.9343 28.6424C13.2307 26.9439 12.1995 25.4005 10.8995 24.1005C9.59947 22.8005 8.05613 21.7693 6.35757 21.0657C4.65901 20.3621 2.83851 20 0.999999 20L1 34H15Z" fill="#FB7185"/>
<path d="M14 34C14 32.2928 13.6637 30.6023 13.0104 29.0251C12.3571 27.4479 11.3995 26.0148 10.1924 24.8076C8.98523 23.6005 7.55212 22.6429 5.97488 21.9896C4.39765 21.3363 2.70718 21 0.999999 21L1 34H14Z" fill="#FDA4AF"/>
<path d="M13 34C13 32.4241 12.6896 30.8637 12.0866 29.4078C11.4835 27.9519 10.5996 26.629 9.48528 25.5147C8.37098 24.4004 7.04811 23.5165 5.5922 22.9134C4.13629 22.3104 2.57586 22 0.999999 22L1 34H13Z" fill="#F43F5E"/>
</svg>
